#!OML:ASF E:/inclinewalkrobotboard/Project1/Captureday1/Session1/subject1.ASF
:FULLY-SPECIFIED
:DEGREES
313
root 0 0 0 -3.482633081218112 -32.59796102978852 0.8710609343774166
lowerback 12.601035485478631 0.3338353258329776 1.613892298117802
upperback 2.202656749606051 0.49953244753231574 0.9085336764454972
thorax -4.610495604051366 0.21168667588073684 -0.07326584617106013
lowerneck -11.446882267969048 -1.8256722368209302 -4.150446384137214
upperneck 0.9195742051121325 -1.8846520060475014 3.584970955287118
head 2.2677738458378456 -0.9442762638895125 1.6759582746633785
rclavicle -3.2928554278792374E-15 1.0821037786341113E-16
rhumerus -7.25331635492757 -3.12628465012428 -69.1343619472294
rradius 12.14246550233456
rwrist 41.4777461430496
rhand -7.139032752227125 19.290937702861125
rfingers 7.125020000000035
rthumb 18.697683862490038 -10.396017646638015
lclavicle 8.720686383979807E-17 -4.808201828636891E-17
lhumerus 15.307270710924165 -34.039599739548756 71.85213760944569
lradius 123.69143175896745
lwrist 51.77456972669453
lhand -25.664945050512607 42.38874244689909
lfingers 7.139238717748162
lthumb 1.0024950412436535 53.17955473166126
rfemur -19.69615541653078 5.492780606868429 15.723953224876603
rtibia 47.81560779706581
rfoot -11.486397405311086 -12.790205834885315
rtoes -2.036604024962195
lfemur -25.760638300250513 1.1284435673418383 -10.851319629930757
ltibia 54.4034473533696
lfoot -7.795275881933406 -0.2658454571527802
ltoes -10.113802866221418
314
root 0 0 0 -3.4776480951467024 -31.978735538308847 0.8361228653002724
lowerback 12.383996184219418 0.36699268082148384 1.6999987122670117
upperback 2.1161817698116208 0.5594554503374591 0.9032985740562343
thorax -4.581342246906762 0.2419800241796554 -0.1314286885140018
lowerneck -11.61058991270929 -1.6648012921902156 -3.9981773182334726
upperneck 1.406234315657283 -1.6636579578853037 3.2708596749546657
head 2.4289915513788953 -0.8343708025895005 1.5627694363891877
rclavicle -3.2463571921902864E-15 1.0115163342870714E-16
rhumerus -7.430862245543466 -2.7443541199973325 -69.32655503131001
rradius 12.46827730641185
rwrist 41.20598085523133
rhand -7.185494466340092 19.118229893836766
rfingers 7.125020000000034
rthumb 18.652812477128887 -10.564689613999025
lclavicle 1.4176687637223193E-16 -6.321077004244121E-17
lhumerus 15.129644747834117 -34.25143025458946 72.03182693031899
lradius 123.82611324863723
lwrist 51.78392218879426
lhand -25.591472784501086 42.40877938337361
lfingers 7.139138197335497
lthumb 1.0741538697868585 53.174915366541725
rfemur -19.085243673051146 5.62075563189121 16.012790285971608
rtibia 47.32132494513325
rfoot -11.82346973332494 -12.881374574321956
rtoes -2.0291029114746455
lfemur -25.70023365715899 1.1445972801474769 -10.870386594312441
ltibia 54.350661237328794
lfoot -7.875352392495472 -0.18486331709334713
ltoes -10.083887700120659
315
root 0 0 0 -3.4504652841892764 -31.397226513398195 0.7962931093686234
lowerback 12.210545300537781 0.40024373600933366 1.7669868262763975
upperback 2.0505474082375725 0.6158728495192781 0.8938738776158519
thorax -4.554554575550391 0.27044862361120847 -0.18293121933859624
lowerneck -11.727232871230207 -1.5378708660026543 -3.879919236658344
upperneck 1.8197833333661944 -1.489875069235549 3.022496274006487
head 2.564355157576529 -0.747959448345288 1.4737599434657773
rclavicle -3.203906794404773E-15 9.390783263380499E-17
rhumerus -7.599034564915259 -2.386582192851117 -69.50650139209834
rradius 12.769769102546206
rwrist 40.954204599414744
rhand -7.226808767031411 18.958748344639062
rfingers 7.125020000000034
rthumb 18.612922319366852 -10.720407468414116
lclavicle 1.9552263909856035E-16 -7.765915581544628E-17
lhumerus 15.06009961972143 -34.39782809031442 72.12828008931449
lradius 123.98134526833297
lwrist 51.856456768570915
lhand -25.567049522165007 42.43842451963799
lfingers 7.139102844446577
lthumb 1.0984521455515228 53.16252282241349
rfemur -18.691568049778024 5.677054872139363 16.210361055612204
rtibia 47.041983751297074
rfoot -12.035563555559726 -12.944726525938314
rtoes -2.0131529646908417
lfemur -25.60489482336854 1.1635093155144123 -10.902060110375754
ltibia 54.27410434742583
lfoot -7.9868769393328565 -0.08291194545259994
ltoes -10.048659714934466
316
root 0 0 0 -3.4153814471241684 -30.882438150784907 0.7575792772392671
lowerback 12.072056762822609 0.4304101405488449 1.8174449673200639
upperback 2.0008221678358016 0.6652370454032783 0.8827939808797585
thorax -4.53046585252213 0.2953548818326674 -0.22625853333870866
lowerneck -11.808529911806442 -1.4383776858241955 -3.789765742790824
upperneck 2.1633219434008506 -1.3541397714306038 2.8287742272748853
head 2.6755294384213415 -0.6805568450665049 1.4048088774122642
rclavicle -3.1681448264888008E-15 8.753198753269996E-17
rhumerus -7.733048653643554 -2.0846363462371755 -69.65542051848801
rradius 13.037321665852076
rwrist 40.73336414930991
rhand -7.2671795607219725 18.818653422523578
rfingers 7.125020000000034
rthumb 18.57396587360207 -10.857308593192183
lclavicle 2.453290285347198E-16 -9.058462935574E-17
lhumerus 15.081989220817999 -34.48149389415299 72.15121472500991
lradius 124.14176760762345
lwrist 51.97468470718379
lhand -25.583835113407652 42.47358069575385
lfingers 7.139117125742093
lthumb 1.0828796828465013 53.1445755920245
rfemur -18.527738714123554 5.65990706169406 16.31044348479928
rtibia 46.985634370343185
rfoot -12.115814596040293 -12.978986817502523
rtoes -1.9888106089050317
lfemur -25.479626383549174 1.1849170736588777 -10.944975258356344
ltibia 54.18036505593575
lfoot -8.124423761009117 0.03289015336301215
ltoes -10.011677737348906
317
root 0 0 0 -3.381892188838834 -30.452971828261482 0.7258473481296654
lowerback 11.962961570527991 0.4553047644622284 1.8537506912199369
upperback 1.963856770810688 0.7051718030553866 0.8720299042065769
thorax -4.509230388326677 0.31553073125829934 -0.26053084884096
lowerneck -11.86286895318689 -1.360146515458207 -3.722006872314405
upperneck 2.4421846775956233 -1.247786408690895 2.6791799707067554
head 2.7644647386573005 -0.6279480491509422 1.3520849308710496
rclavicle -3.1400230086867875E-15 8.257526711294324E-17
rhumerus -7.825411668535619 -1.8507880073115288 -69.76688739771309
rradius 13.264278541663785
rwrist 40.54952295114401
rhand -7.307013544039112 18.70160503358903
rfingers 7.125020000000034
rthumb 18.535539428790635 -10.971840782878676
lclavicle 2.896361706171259E-16 -1.0165666393342216E-16
lhumerus 15.166888253989718 -34.51521057948251 72.12068171359212
lradius 124.29482908894741
lwrist 52.11738648847189
lhand -25.62876001772072 42.510202509671984
lfingers 7.139161199383619
lthumb 1.0400098635195754 53.123654718928385
rfemur -18.57073586851866 5.581107320644722 16.320802317010152
rtibia 47.12237090457184
rfoot -12.080577292816184 -12.98810090245141
rtoes -1.9597264856472103
lfemur -25.327236938134597 1.2048851085517782 -10.996934635808184
ltibia 54.06661556974756
lfoot -8.280083407579257 0.15866777849748903
ltoes -9.972574611237782
318
root 0 0 0 -3.3553735784084653 -30.11751110050613 0.7052622275671406
lowerback 11.879650473141888 0.47370748278576447 1.8780838839087808
upperback 1.937577903443449 0.7344729569172923 0.8629613804656595
thorax -4.4909706724442815 0.330381582120579 -0.28549088729227384
lowerneck -11.896383122495513 -1.2981803047057343 -3.6717947606815695
upperneck 2.662337336262121 -1.163801372650458 2.564851811574945
head 2.8331982354817837 -0.5867162416340161 1.3123657143076297
rclavicle -3.1192327631181588E-15 7.913352121487081E-17
rhumerus -7.879795810391551 -1.6834243487790186 -69.84285896009052
rradius 13.4477239701341
rwrist 40.404215617881924
rhand -7.344706464671646 18.608722886712602
rfingers 7.125020000000034
rthumb 18.499176446983633 -11.062861677220308
lclavicle 3.278090681962142E-16 -1.1082053394416243E-16
lhumerus 15.283525552298894 -34.51650113798165 72.06020296165629
lradius 124.43237291365097
lwrist 52.26471726686886
lhand -25.68749218240941 42.54506049288095
lfingers 7.139217222703715
lthumb 0.9836749463610133 53.102229318298704
rfemur -18.76884276633994 5.462698271033519 16.260794995286346
rtibia 47.39352249463322
rfoot -11.963608586831102 -12.979070101705158
rtoes -1.9318567878467197
lfemur -25.152119947052807 1.2188727481545696 -11.05488048823759
ltibia 53.929388484938826
lfoot -8.44430450351797 0.29086464446561155
ltoes -9.9301727904971
